<svg width="381" height="13" viewBox="0 0 381 13" fill="none" xmlns="http://www.w3.org/2000/svg">
<path d="M2.25781 8.84131C28.1 8.84131 53.7567 11.1978 79.587 11.1978C90.6715 11.1978 101.756 11.1978 112.84 11.1978C143.209 11.1978 173.569 10.4123 203.96 10.4123C262.414 10.4123 320.898 9.62682 379.303 9.62682" stroke="#F1CE5D" stroke-width="3" stroke-linecap="round"/>
<path d="M157.789 8.84114C164.72 8.84114 171.333 7.54846 178.169 6.57189C184.756 5.63078 191.214 6.00244 197.806 5.65546C205.704 5.23981 213.295 4.12807 221.241 4.12807C232.374 4.12807 243.509 3.34256 254.712 3.34256C267.289 3.34256 279.735 2.55705 292.33 2.55705C303.555 2.55705 315.04 1.9189 326.238 2.73161C338.245 3.60313 350.156 7.06119 362.022 8.84114" stroke="#F1CE5D" stroke-width="3" stroke-linecap="round"/>
</svg>
